<svg width="20" height="21" viewBox="0 0 20 21" fill="none" xmlns="http://www.w3.org/2000/svg">
<path d="M18.5246 0.499999H1.47541C1.08858 0.496063 0.715978 0.645744 0.439375 0.916201C0.162772 1.18666 0.00475594 1.5558 0 1.94262V19.0607C0.00561604 19.4469 0.16401 19.8152 0.44052 20.085C0.717029 20.3547 1.08914 20.5039 1.47541 20.5H18.5246C18.9114 20.5031 19.2838 20.3529 19.5603 20.0823C19.8367 19.8116 19.9948 19.4426 20 19.0557V1.9377C19.9931 1.55201 19.8342 1.18463 19.558 0.915419C19.2817 0.646204 18.9103 0.496914 18.5246 0.499999ZM5.92951 17.5492H2.96066V7.99672H5.92951V17.5492ZM4.4541 6.69508C4.11359 6.69541 3.78063 6.59473 3.49734 6.40579C3.21406 6.21684 2.99318 5.94812 2.86265 5.63362C2.73211 5.31912 2.69779 4.97297 2.76402 4.63896C2.83025 4.30495 2.99406 3.99809 3.23473 3.7572C3.47539 3.51631 3.7821 3.3522 4.11604 3.28565C4.44999 3.2191 4.79617 3.2531 5.1108 3.38333C5.42542 3.51356 5.69435 3.73419 5.88356 4.01729C6.07278 4.30039 6.17377 4.63326 6.17377 4.97377C6.17334 5.20009 6.12828 5.42411 6.04118 5.633C5.95407 5.84189 5.82662 6.03155 5.66613 6.19112C5.50564 6.3507 5.31526 6.47706 5.10588 6.56297C4.89649 6.64889 4.67222 6.69267 4.4459 6.6918L4.4541 6.69508ZM17.0492 17.5492H14.0803V12.9016C14.0803 11.7951 14.0607 10.3705 12.5377 10.3705C11.0148 10.3705 10.7557 11.577 10.7557 12.8295V17.5492H7.7918V7.99672H10.6377V9.3082H10.677C11.0738 8.55738 12.041 7.76557 13.4852 7.76557C16.4918 7.75902 17.0492 9.7377 17.0492 12.3033V17.5492Z" fill="black"/>
</svg>
