<svg width="20" height="15" viewBox="0 0 20 15" fill="none" xmlns="http://www.w3.org/2000/svg">
<path d="M10.2451 8.39714C10.5118 8.39714 10.7705 8.29204 11.021 8.06576L19.0948 0.953661C18.6584 0.662712 18.1574 0.533401 17.4623 0.533401H3.03613C2.34109 0.533401 1.84001 0.662712 1.3955 0.953661L9.46928 8.06576C9.7279 8.29204 9.98652 8.39714 10.2451 8.39714ZM0.708543 13.1573L6.68915 7.1848L0.692379 1.89924C0.603478 2.06896 0.498413 2.48114 0.498413 3.03879V11.9612C0.498413 12.4785 0.579232 12.8502 0.708543 13.1573ZM2.79367 14.4666H17.7047C18.2947 14.4666 18.7554 14.3211 19.0625 14.111L12.9122 7.96066L11.7322 9.01135C11.2635 9.42349 10.7543 9.63362 10.2451 9.63362C9.74404 9.63362 9.23494 9.42349 8.76618 9.01135L7.58618 7.96066L1.43592 14.111C1.74303 14.3211 2.19561 14.4666 2.79367 14.4666ZM19.7899 13.1573C19.9111 12.8502 20 12.4785 20 11.9612V3.03879C20 2.48114 19.8949 2.06896 19.806 1.89924L13.8093 7.1848L19.7899 13.1573Z" fill="black"/>
</svg>
