<svg width="13" height="17" viewBox="0 0 13 17" fill="none" xmlns="http://www.w3.org/2000/svg">
<g id="icon-arrow-up 1" clip-path="url(#clip0_753_1255)">
<g id="Clip path group">
<mask id="mask0_753_1255" style="mask-type:luminance" maskUnits="userSpaceOnUse" x="0" y="0" width="13" height="16">
<g id="clip0_2207_37344">
<path id="Vector" d="M12.3616 0.512695H0.00288391V15.9121H12.3616V0.512695Z" fill="white"/>
</g>
</mask>
<g mask="url(#mask0_753_1255)">
<g id="Group">
<path id="Vector_2" d="M6.18223 15.9121C6.60615 15.9121 6.90777 15.6187 6.90777 15.1948V4.45835L6.82625 2.029L6.36158 2.19204L9.28827 5.39585L11.1469 7.22194C11.2774 7.35237 11.4648 7.41759 11.6604 7.41759C12.0681 7.41759 12.3616 7.10781 12.3616 6.70835C12.3616 6.5127 12.2964 6.3415 12.1415 6.17846L6.72843 0.75726C6.57353 0.594217 6.38603 0.512695 6.18223 0.512695C5.97842 0.512695 5.79093 0.594217 5.63604 0.75726L0.231144 6.17846C0.0762534 6.3415 0.00288391 6.5127 0.00288391 6.70835C0.00288391 7.10781 0.296362 7.41759 0.703969 7.41759C0.899621 7.41759 1.09527 7.35237 1.21755 7.22194L3.07625 5.39585L5.99473 2.19204L5.53821 2.029L5.45668 4.45835V15.1948C5.45668 15.6187 5.75832 15.9121 6.18223 15.9121Z" fill="black"/>
</g>
</g>
</g>
</g>
<defs>
<clipPath id="clip0_753_1255">
<rect width="12.5217" height="16" fill="white" transform="translate(0 0.5)"/>
</clipPath>
</defs>
</svg>
