<svg width="18" height="18" viewBox="0 0 18 18" fill="none" xmlns="http://www.w3.org/2000/svg">
<path d="M16.7143 7.71231H13.9821C13.6975 6.60785 13.0538 5.62934 12.1523 4.93069C11.2508 4.23205 10.1426 3.85291 9.00201 3.85291C7.86146 3.85291 6.75327 4.23205 5.85174 4.93069C4.95022 5.62934 4.30651 6.60785 4.02188 7.71231H1.28571C0.944722 7.71231 0.617695 7.84777 0.376577 8.08889C0.135459 8.33001 0 8.65703 0 8.99803C0 9.33902 0.135459 9.66604 0.376577 9.90716C0.617695 10.1483 0.944722 10.2837 1.28571 10.2837H4.01987C4.30381 11.3891 4.94735 12.3686 5.84914 13.068C6.75094 13.7675 7.85976 14.1471 9.001 14.1471C10.1422 14.1471 11.2511 13.7675 12.1529 13.068C13.0547 12.3686 13.6982 11.3891 13.9821 10.2837H16.7143C17.0553 10.2837 17.3823 10.1483 17.6234 9.90716C17.8645 9.66604 18 9.33902 18 8.99803C18 8.65703 17.8645 8.33001 17.6234 8.08889C17.3823 7.84777 17.0553 7.71231 16.7143 7.71231ZM9 11.5695C8.49142 11.5695 7.99426 11.4186 7.57139 11.1361C7.14852 10.8535 6.81893 10.4519 6.62431 9.98207C6.42968 9.5122 6.37876 8.99517 6.47798 8.49637C6.5772 7.99756 6.8221 7.53937 7.18173 7.17975C7.54135 6.82013 7.99953 6.57523 8.49834 6.47601C8.99715 6.37679 9.51418 6.42771 9.98404 6.62234C10.4539 6.81696 10.8555 7.14655 11.1381 7.56942C11.4206 7.99229 11.5714 8.48945 11.5714 8.99803C11.5707 9.67978 11.2995 10.3334 10.8175 10.8155C10.3354 11.2976 9.68176 11.5687 9 11.5695Z" fill="#4FDD9D"/>
</svg>
