<svg width="21" height="21" viewBox="0 0 21 21" fill="none" xmlns="http://www.w3.org/2000/svg">
<path fill-rule="evenodd" clip-rule="evenodd" d="M10.7467 0.5C5.08477 0.5 0.49353 5.09022 0.49353 10.7532C0.49353 15.2835 3.43138 19.1266 7.50527 20.4825C8.01753 20.5776 8.20565 20.2601 8.20565 19.9893C8.20565 19.7448 8.19614 18.9371 8.19173 18.0804C5.33929 18.7006 4.73739 16.8706 4.73739 16.8706C4.27098 15.6855 3.59896 15.3704 3.59896 15.3704C2.66852 14.734 3.66908 14.7473 3.66908 14.7473C4.69851 14.8194 5.24081 15.8039 5.24081 15.8039C6.15529 17.371 7.63941 16.918 8.2245 16.6562C8.31652 15.9935 8.58224 15.541 8.87547 15.285C6.5981 15.0261 4.20391 14.1467 4.20391 10.218C4.20391 9.09859 4.60461 8.18394 5.2605 7.46573C5.15388 7.20765 4.80293 6.16481 5.35966 4.75252C5.35966 4.75252 6.22049 4.47695 8.17984 5.80351C8.99788 5.57616 9.87518 5.46189 10.7467 5.45799C11.6177 5.46189 12.4955 5.57582 13.3151 5.80317C15.2721 4.47661 16.1319 4.75218 16.1319 4.75218C16.69 6.1643 16.339 7.20731 16.2326 7.46539C16.89 8.1836 17.2878 9.09825 17.2878 10.2177C17.2878 14.1557 14.8892 15.0227 12.6061 15.2767C12.974 15.5949 13.3017 16.219 13.3017 17.1754C13.3017 18.5473 13.2898 19.6514 13.2898 19.9891C13.2898 20.262 13.4745 20.5817 13.9941 20.481C18.0656 19.1237 21 15.2818 21 10.7532C20.9999 5.09056 16.4091 0.5 10.7467 0.5Z" fill="black"/>
<path d="M4.37695 15.2211C4.35437 15.2721 4.27423 15.2874 4.20122 15.2526C4.12651 15.2193 4.08491 15.1498 4.10902 15.0987C4.1311 15.0461 4.21141 15.0317 4.2856 15.0668C4.36031 15.1003 4.40276 15.1704 4.37678 15.2213L4.37695 15.2211ZM4.79225 15.6845C4.74352 15.7298 4.64793 15.7088 4.58307 15.637C4.51584 15.5656 4.50327 15.4701 4.55302 15.424C4.60362 15.3789 4.69632 15.4003 4.76356 15.4716C4.83045 15.5439 4.8437 15.6387 4.79242 15.6847L4.79225 15.6845ZM5.19669 16.2749C5.13387 16.3187 5.03097 16.2777 4.96747 16.1866C4.90465 16.0952 4.90465 15.9857 4.96917 15.9421C5.0325 15.8983 5.13387 15.9378 5.19839 16.0282C5.26087 16.1207 5.26087 16.2304 5.19669 16.2749ZM5.75037 16.8455C5.69434 16.9075 5.57447 16.8908 5.48686 16.8065C5.39738 16.7238 5.37242 16.6061 5.42862 16.5443C5.48567 16.4822 5.60605 16.4995 5.69417 16.5834C5.78365 16.6659 5.81064 16.7837 5.75071 16.8453L5.75037 16.8455ZM6.51441 17.1768C6.48946 17.2571 6.37434 17.2936 6.25803 17.2593C6.14207 17.2241 6.06617 17.1302 6.08994 17.0491C6.11371 16.9681 6.22968 16.9302 6.34666 16.9667C6.46263 17.0017 6.53852 17.0951 6.51441 17.1768ZM7.35368 17.2381C7.35656 17.3226 7.25809 17.3926 7.13635 17.3943C7.01359 17.3972 6.91427 17.3286 6.91308 17.2454C6.91308 17.16 7.00952 17.0909 7.1321 17.0885C7.25384 17.0863 7.35385 17.1542 7.35385 17.2379L7.35368 17.2381ZM8.13436 17.1053C8.14896 17.1876 8.06424 17.2724 7.94318 17.2949C7.82433 17.317 7.71397 17.2657 7.69869 17.1841C7.68409 17.0995 7.77034 17.0148 7.88919 16.9929C8.01042 16.972 8.11908 17.0216 8.13436 17.1053Z" fill="black"/>
</svg>
