<svg width="17" height="21" viewBox="0 0 17 21" fill="none" xmlns="http://www.w3.org/2000/svg">
<path d="M4.89209 5.77051C4.54694 5.77051 4.29508 5.49999 4.29508 5.16417C4.29508 4.83768 4.54694 4.58581 4.89209 4.58581H12.1961C12.532 4.58581 12.7838 4.83768 12.7838 5.16417C12.7838 5.49999 12.532 5.77051 12.1961 5.77051H4.89209ZM4.89209 9.12872C4.54694 9.12872 4.29508 8.85823 4.29508 8.52239C4.29508 8.19588 4.54694 7.94401 4.89209 7.94401H12.1961C12.532 7.94401 12.7838 8.19588 12.7838 8.52239C12.7838 8.85823 12.532 9.12872 12.1961 9.12872H4.89209ZM4.89209 12.487C4.54694 12.487 4.29508 12.2258 4.29508 11.8993C4.29508 11.5634 4.54694 11.3022 4.89209 11.3022H8.34358C8.69803 11.3022 8.94058 11.5634 8.94058 11.8993C8.94058 12.2258 8.69803 12.487 8.34358 12.487H4.89209ZM0.694336 17.5802C0.694336 19.5298 1.65516 20.5 3.58612 20.5H13.4928C15.4238 20.5 16.3845 19.5298 16.3845 17.5802V3.4291C16.3845 1.4888 15.4238 0.5 13.4928 0.5H3.58612C1.65516 0.5 0.694336 1.4888 0.694336 3.4291V17.5802Z" fill="black"/>
</svg>
